<?xml version="1.0" encoding="UTF-8"?>
<svg width="238px" height="195px" viewBox="0 0 238 195" version="1.1" xmlns="http://www.w3.org/2000/svg" xmlns:xlink="http://www.w3.org/1999/xlink">
    <title>DC Main Logo - Full Colour (Dark Background)</title>
    <defs>
        <radialGradient cx="44.9996908%" cy="55.9996635%" fx="44.9996908%" fy="55.9996635%" r="82.7575662%" gradientTransform="translate(0.45, 0.56), scale(1, 0.9426), translate(-0.45, -0.56)" id="radialGradient-1">
            <stop stop-color="#2571AB" offset="0%"></stop>
            <stop stop-color="#33B9CD" offset="100%"></stop>
        </radialGradient>
    </defs>
    <g id="Logo-(Updated)-" stroke="none" stroke-width="1" fill="none" fill-rule="evenodd">
        <g id="export" transform="translate(-676, -1521)">
            <g id="DC-Main-Logo---Full-Colour-(Dark-Background)" transform="translate(676.2758, 1521.8845)">
                <g id="colored-Text" transform="translate(25.7242, 100.1155)" fill-rule="nonzero">
                    <path d="M19.8711189,82.8219027 C25.418473,82.8219027 29.8894747,81.4556908 33.2841242,78.723267 C36.5959773,75.9080424 38.4588947,72.0164086 38.8728764,67.0483653 L38.8728764,67.0483653 L30.3034564,67.0483653 C29.6410857,69.7807891 28.5233353,71.7680064 26.950205,73.0100172 C25.2114821,74.3348287 23.0173794,74.9972345 20.3678969,74.9972345 C16.5592658,74.9972345 13.7027924,73.7138233 11.7984769,71.147001 C9.81136497,68.6629794 8.81780902,65.1025483 8.81780902,60.465708 C8.81780902,55.6632661 9.81136497,52.0200344 11.7984769,49.5360128 C13.8683851,47.0519912 16.8076548,45.8099803 20.6162859,45.8099803 C23.3485647,45.8099803 25.5426674,46.4309857 27.198594,47.6729966 C28.0265573,48.5010038 28.7303261,49.4532121 29.3099004,50.5296214 C30.1378637,52.2684366 31.5454013,53.1378441 33.5325132,53.1378441 L33.5325132,53.1378441 L38.8728764,53.1378441 C38.4588947,48.3354023 36.7201718,44.6093699 33.6567077,41.9597468 C30.4276508,39.227323 26.0808436,37.8611111 20.6162859,37.8611111 C13.9097832,37.8611111 8.77641086,39.8069281 5.21616872,43.6985619 C1.73872291,47.4245944 0,53.0136431 0,60.465708 C0,67.7521714 1.69732474,73.2584194 5.09197422,76.9844518 C8.48662371,80.8760857 13.4130053,82.8219027 19.8711189,82.8219027 Z M51.1681312,82.4492994 C52.6584651,82.4492994 54.376489,82.3457985 56.3222027,82.1387967 C58.2679164,81.9317949 60.1101347,81.37289 61.8488576,80.4620821 C63.5047842,79.6340749 64.9330209,78.2885632 66.1335677,76.425547 C67.3341144,74.5625307 67.9343878,71.9750082 67.9343878,68.6629794 L67.9343878,68.6629794 L67.9343878,57.3606809 C67.9343878,54.379855 66.733841,52.0614348 64.3327475,50.4054204 C62.0144503,48.8322067 58.5370045,48.0455998 53.9004101,48.0455998 C49.7605936,48.0455998 46.572935,48.9978081 44.3374341,50.9022247 C42.3503222,52.5582391 41.1911736,54.6696575 40.8599883,57.2364798 L40.8599883,57.2364798 L49.1810193,57.2364798 C49.595001,56.3256719 50.2573716,55.7046665 51.1681312,55.3734636 C52.0788908,55.0422607 53.113845,54.8766593 54.2729936,54.8766593 C55.3493458,54.8766593 56.5291935,55.0629609 57.8125366,55.4355642 C59.0958797,55.8081674 59.7375513,56.6154744 59.7375513,57.8574853 C59.7375513,59.5134997 57.916032,60.589909 54.2729936,61.0867134 C53.5278266,61.1695141 52.865456,61.273015 52.2858817,61.3972161 C51.7063074,61.5214172 51.2095294,61.5835177 50.7955477,61.5835177 C47.6492872,62.080322 45.061902,63.0739307 43.0333919,64.5643437 C41.0048819,66.0547566 39.9906268,68.5387783 39.9906268,72.0164086 C39.9906268,75.742441 41.1083773,78.4127643 43.3438781,80.0273783 C45.579379,81.6419924 48.1874634,82.4492994 51.1681312,82.4492994 Z M52.4100762,75.742441 C51.0025386,75.742441 49.9261863,75.4112381 49.1810193,74.7488324 C48.4358524,74.0036259 48.0632689,73.0100172 48.0632689,71.7680064 C48.0632689,70.8571985 48.353056,69.9463905 48.9326303,69.0355826 C49.595001,68.3731768 50.6713533,67.8349721 52.1616872,67.4209685 C52.1616872,67.4209685 53.113845,67.2139667 55.0181605,66.7999631 C57.0880687,66.3031588 58.7025971,65.7649541 59.8617458,65.1853491 L59.8617458,65.1853491 L59.8617458,68.2903761 C59.8617458,70.6087963 59.1993751,72.4304122 57.8746339,73.7552237 C56.5498926,75.0800352 54.7283734,75.742441 52.4100762,75.742441 Z M77.8699473,81.828294 L77.8699473,60.7141101 C77.8699473,58.7268928 78.4495216,57.2778802 79.6086702,56.3670723 C80.7678188,55.4562643 82.09256,55.0008604 83.582894,55.0008604 C85.0732279,55.0008604 86.4186682,55.4562643 87.619215,56.3670723 C88.8197618,57.2778802 89.4200351,58.7268928 89.4200351,60.7141101 L89.4200351,60.7141101 L89.4200351,81.828294 L97.9894552,81.828294 L97.9894552,60.7141101 C97.9894552,58.7268928 98.5897286,57.2778802 99.7902753,56.3670723 C100.990822,55.4562643 102.336262,55.0008604 103.826596,55.0008604 C105.31693,55.0008604 106.662371,55.4562643 107.862917,56.3670723 C109.063464,57.2778802 109.663738,58.7268928 109.663738,60.7141101 L109.663738,60.7141101 L109.663738,77.6054572 C109.663738,78.847468 110.05702,79.8617769 110.843585,80.6483837 C111.63015,81.4349906 112.644405,81.828294 113.88635,81.828294 L113.88635,81.828294 L118.233158,81.828294 L118.233158,62.4529253 C118.233158,56.6568748 116.701426,52.8066413 113.637961,50.9022247 C110.574497,48.9978081 107.221246,48.0455998 103.578207,48.0455998 C101.756688,48.1284005 99.9972662,48.3975029 98.2999414,48.8529068 C96.6026167,49.3083108 95.1329818,50.0742175 93.8910369,51.1506268 C92.400703,49.908616 90.7447764,49.0806088 88.9232572,48.6666052 C87.1017379,48.2526016 85.2388205,48.0455998 83.334505,48.0455998 C79.7742628,48.2112012 76.5245069,49.2462103 73.5852373,51.1506268 C70.6459676,53.0550434 69.1763327,56.8224762 69.1763327,62.4529253 L69.1763327,62.4529253 L69.1763327,81.828294 L77.8699473,81.828294 Z M124.815466,94 C125.974614,94 126.96817,93.5859964 127.796134,92.7579892 C128.624097,91.929982 129.038079,90.9363733 129.038079,89.7771632 L129.038079,89.7771632 L129.038079,77.4812561 C130.031634,79.2200713 131.356376,80.5034825 133.012302,81.3314897 C134.585433,82.0766962 136.406952,82.4492994 138.47686,82.4492994 C142.368287,82.4492994 145.555946,80.8760857 148.039836,77.7296583 C150.523726,74.5004302 151.765671,70.2775934 151.765671,65.061148 C151.765671,60.010304 150.523726,55.8702679 148.039836,52.6410398 C146.797891,51.1506268 145.121265,50.0121169 143.009959,49.2255101 C140.898653,48.4389032 138.808045,48.0455998 136.738137,48.0455998 C132.763913,48.0455998 129.079477,49.101309 125.684827,51.2127274 C122.290178,53.3241458 120.592853,57.2778802 120.592853,63.0739307 L120.592853,63.0739307 L120.592853,94 L124.815466,94 Z M136.241359,75.1214356 C133.923062,75.1214356 132.142941,74.252028 130.900996,72.5132129 C129.659051,70.9399992 129.038079,68.5801786 129.038079,65.4337512 C129.038079,62.0389217 129.617653,59.5549 130.776801,57.9816863 C132.018746,56.2428712 133.757469,55.3734636 135.99297,55.3734636 C138.311267,55.3734636 140.091388,56.2428712 141.333333,57.9816863 C142.575278,59.7205015 143.196251,62.2045231 143.196251,65.4337512 C143.196251,68.4145772 142.575278,70.7743977 141.333333,72.5132129 C140.091388,74.252028 138.394064,75.1214356 136.241359,75.1214356 Z M167.414177,82.4492994 C171.057215,82.4492994 174.410467,81.5384915 177.473931,79.7168756 C180.537395,77.8952598 182.069127,74.0450262 182.069127,68.166175 L182.069127,68.166175 L182.069127,48.7908063 L177.72232,48.7908063 C176.480375,48.7908063 175.46612,49.2048099 174.679555,50.0328171 C173.89299,50.8608243 173.499707,51.854433 173.499707,53.0136431 L173.499707,53.0136431 L173.499707,69.9049902 C173.499707,71.8922075 172.899434,73.3412201 171.698887,74.252028 C170.49834,75.162836 169.1529,75.6182399 167.662566,75.6182399 C166.172232,75.6182399 164.847491,75.162836 163.688342,74.252028 C162.529194,73.3412201 161.949619,71.8922075 161.949619,69.9049902 L161.949619,69.9049902 L161.949619,48.7908063 L153.256005,48.7908063 L153.256005,68.166175 C153.256005,73.8794248 154.72564,77.6468576 157.664909,79.4684735 C160.604179,81.2900893 163.853935,82.283698 167.414177,82.4492994 Z M196.848272,82.4492994 C201.816052,82.4492994 205.541886,81.5384915 208.025776,79.7168756 C210.675259,77.7296583 212,74.9144338 212,71.2712021 C212,68.7871804 211.213435,66.7999631 209.640305,65.3095501 C207.984378,63.9019379 205.045108,62.6599271 200.822496,61.5835177 C200.49131,61.5835177 200.139426,61.5421173 199.766842,61.4593166 C199.394259,61.3765159 198.959578,61.2523148 198.4628,61.0867134 C194.157391,60.1759054 192.004687,59.0580957 192.004687,57.7332842 C192.004687,56.7396755 192.37727,55.994469 193.122437,55.4976647 C193.9504,55.0008604 195.192345,54.7524582 196.848272,54.7524582 C198.586995,54.7524582 199.953134,55.1250615 200.94669,55.8702679 C201.277875,56.2014708 201.609061,56.5326737 201.940246,56.8638766 C202.768209,58.2714889 203.968756,58.975295 205.541886,58.975295 L205.541886,58.975295 L210.88225,58.975295 C210.716657,55.6632661 209.433314,52.9722427 207.03222,50.9022247 C204.465534,48.9978081 201.029486,48.0455998 196.724077,48.0455998 C192.749854,48.0455998 189.520797,48.9978081 187.036907,50.9022247 C184.635813,52.9722427 183.435267,55.5804654 183.435267,58.7268928 C183.435267,61.2109145 184.26323,63.1981318 185.919156,64.6885447 C187.40949,66.1789577 190.34876,67.4623689 194.736965,68.5387783 C195.482132,68.7871804 196.599883,69.0355826 198.090217,69.2839848 C201.567663,70.0291912 203.306385,71.147001 203.306385,72.637414 C203.306385,73.6310226 202.809607,74.4176295 201.816052,74.9972345 C200.739699,75.5768396 199.456356,75.8666421 197.966022,75.8666421 C195.896114,75.8666421 194.240187,75.4526385 192.998243,74.6246313 C191.839094,73.7966241 191.218121,72.5546132 191.135325,70.8985988 L191.135325,70.8985988 L182.6901,70.8985988 L182.6901,71.2712021 C182.6901,74.9144338 183.890646,77.6882579 186.29174,79.5926745 C188.610037,81.4970911 192.128881,82.4492994 196.848272,82.4492994 Z" id="Campus" fill="#20A2C7"></path>
                    <path d="M115.198553,42.4660936 C119.263052,42.4660936 122.29069,42.1780484 124.281465,41.601958 C126.355189,41.0258676 128.30449,40.038284 130.129367,38.6392073 C132.28604,36.9932346 134.027969,34.6065743 135.355152,31.4792264 C136.516438,28.434177 137.097081,25.0187838 137.097081,21.2330468 C137.097081,14.1553645 135.479576,8.80595352 132.244566,5.18481375 C129.009556,1.72827125 124.115567,0 117.562598,0 L117.562598,0 L105.244676,0 C104.000442,0 102.942843,0.432067813 102.071878,1.29620344 C101.200914,2.16033906 100.765432,3.20964661 100.765432,4.44412607 L100.765432,4.44412607 L100.765432,42.4660936 L115.198553,42.4660936 Z M116.442787,34.8123209 L109.35065,34.8123209 L109.35065,7.40687679 L117.562598,7.40687679 C121.212353,7.40687679 123.86672,8.51790831 125.525699,10.7399713 C127.267628,12.9620344 128.138592,16.4597262 128.138592,21.2330468 C128.138592,26.1709647 127.226153,29.6275072 125.401276,31.6026743 C123.49345,33.7424387 120.507287,34.8123209 116.442787,34.8123209 L116.442787,34.8123209 Z M148.295192,6.78963706 L148.295192,4.19723018 C148.295192,3.04504935 147.880447,2.05746578 147.050957,1.23447947 C146.221467,0.411493155 145.22608,0 144.064794,0 L144.064794,0 L139.58555,0 L139.58555,6.78963706 L148.295192,6.78963706 Z M148.295192,42.4660936 L148.295192,13.82617 C148.295192,12.6739892 147.880447,11.6864056 147.050957,10.8634193 C146.221467,10.040433 145.22608,9.62893983 144.064794,9.62893983 L144.064794,9.62893983 L139.58555,9.62893983 L139.58555,42.4660936 L148.295192,42.4660936 Z M169.073908,42.4660936 L180.769713,9.62893983 L174.299693,9.62893983 C172.308918,9.62893983 170.981735,10.6165234 170.318143,12.5916905 L170.318143,12.5916905 L164.470241,32.7137058 L157.875797,9.62893983 L148.668462,9.62893983 L160.239843,42.4660936 L169.073908,42.4660936 Z M196.571492,43.0833333 C200.470093,43.0833333 203.705103,42.1368991 206.276521,40.2440306 C208.847939,38.4334607 210.589868,35.7999045 211.502306,32.343362 L211.502306,32.343362 L205.281133,32.343362 C204.285746,32.343362 203.518468,32.5491086 202.9793,32.9606017 C202.440131,33.3720949 202.129073,33.7012894 202.046124,33.9481853 C201.797277,34.1950812 201.569167,34.4214024 201.361795,34.627149 C201.154422,34.8328956 200.926313,34.9769182 200.677466,35.0592168 C199.682078,35.6353072 198.479318,35.9233524 197.069186,35.9233524 C194.912512,35.9233524 193.295007,35.2649634 192.216671,33.9481853 C191.055385,32.7137058 190.433268,30.8208373 190.350319,28.2695798 L190.350319,28.2695798 L211.875577,28.2695798 C211.958526,28.1049825 212,27.8169373 212,27.4054441 L212,27.4054441 L212,26.0475167 C212,20.6158071 210.672816,16.3774276 208.018449,13.3323782 C205.281133,10.3696275 201.424006,8.88825215 196.447068,8.88825215 C191.718977,8.88825215 188.027748,10.4107768 185.373381,13.4558262 C182.801963,16.4185769 181.516254,20.5335084 181.516254,25.8006208 C181.516254,31.3146291 182.843437,35.5530086 185.497804,38.5157593 C188.152171,41.5608087 191.8434,43.0833333 196.571492,43.0833333 Z M203.041511,22.7144222 L190.350319,22.7144222 C190.433268,20.5746578 191.055385,18.9286851 192.216671,17.7765043 C193.377956,16.6243235 194.871038,16.048233 196.695915,16.048233 C198.68669,16.048233 200.221246,16.6243235 201.299583,17.7765043 C202.294971,18.8463865 202.875613,20.4923591 203.041511,22.7144222 L203.041511,22.7144222 Z" id="Dive" fill="#FFFFFF"></path>
                </g>
                <g id="Colored-logo-Copy" transform="translate(67.6225, 75.8677) rotate(-20) translate(-67.6225, -75.8677)translate(18.5443, 12.994)">
                    <g id="Colored-icon" transform="translate(1.6247, 23.3397)">
                        <path d="M86.6373222,83.1254658 C112.037828,49.956054 82.6508722,-9.76382243 64.2448111,1.3618279 C57.8646753,5.21875881 71.3451708,14.8625408 70.5845981,22.8615265 C63.8645247,16.64505 31.5401849,-6.98337966 27.6293887,6.65795556 C26.6287413,10.151208 38.8634711,13.2788425 51.6802307,29.037271 C11.9216458,2.03681506 -2.32950949,13.7249547 2.3388333,21.0004628 C7.02331555,28.2992463 31.8448175,28.8471884 43.4390119,41.165704 C-13.7935794,30.3086908 -2.30832643,78.9552865 14.210425,60.9750253 C31.5381675,42.1161169 49.3339547,57.353758 48.6651753,68.3494539 C48.152747,76.7809745 39.6401833,83.2554202 29.6528752,82.809308 C21.9240847,82.4650258 15.5782454,78.0776093 13.3399021,72.2034754 C8.73813464,69.9670955 4.85457377,68.9313394 2.25006619,71.2918548 C-13.0451114,85.1591555 53.4485118,126.465266 86.6373222,83.1254658" id="Fill-29" fill="url(#radialGradient-1)"></path>
                        <path d="M52.9078395,96.0297461 C68.8082473,93.510182 84.1790786,83.744204 88.866587,68.3281181 C95.2134351,47.455886 75.0996159,37.3592032 72.4940996,45.5036602 C71.5388445,48.4897025 71.9776364,56.3946168 71.3360923,60.6879618 C69.7594675,71.2278474 63.5941885,80.7794975 55.4790594,87.7058743 C51.5107663,91.091478 40.6327609,97.463124 52.9078395,96.0297461" id="Fill-38" fill="#33B9CD"></path>
                    </g>
                    <g id="colored-splash" transform="translate(0, 0)">
                        <path d="M47.1686526,7.6165891 C44.9619539,5.98783925 42.6719836,5.30843522 40.8085266,5.36303019 C36.4580908,5.4934515 34.7266498,11.0287745 36.8582009,13.3652369 C39.6010877,16.3709931 48.1069819,16.2112523 53.8618652,20.4373071 C57.1907001,22.8829594 50.1836956,10.0349439 47.1686526,7.6165891" id="Fill-32" fill="#1C8BBD"></path>
                        <path d="M5.79279869,24.4277948 C3.8288064,24.4045414 2.23953654,24.951502 1.21692008,25.737063 C-1.16952349,27.5720605 0.31819559,31.3835979 2.55434399,31.8335009 C5.43330889,32.4118032 10.142219,28.8772846 15.2542858,28.9217694 C18.2134758,28.9470448 8.56208873,24.5652932 5.79279869,24.4277948" id="Fill-33" fill="#1C8BBD"></path>
                        <path d="M77.1322287,3.19742984 C76.7575063,1.88512861 76.0436043,0.936793815 75.2667407,0.412075523 C73.4530436,-0.813278174 70.9630182,0.934771779 71.0787861,2.51094869 C71.2260348,4.54208365 74.7437542,6.97358171 75.7247348,10.3847561 C76.2934192,12.3592741 77.5810832,5.06680195 77.1322287,3.19742984" id="Fill-34" fill="#1C8BBD"></path>
                        <path d="M44.7893176,8.90159285 C44.7893176,10.2462467 43.238637,11.336124 41.3264357,11.336124 C39.4142343,11.336124 37.8635537,10.2462467 37.8635537,8.90159285 C37.8635537,7.55795006 39.4142343,6.46807276 41.3264357,6.46807276 C43.238637,6.46807276 44.7893176,7.55795006 44.7893176,8.90159285 Z" id="Fill-35" fill="#33B9CD"></path>
                        <path d="M3.16872627,25.398372 C4.47466943,25.0121631 5.75522489,25.4438678 6.02839652,26.360861 C6.30156814,27.2788653 5.46478963,28.335379 4.15884647,28.7215878 C2.85290331,29.1067856 1.57336336,28.67407 1.29917622,27.7580877 C1.0260046,26.8400835 1.86379862,25.7835698 3.16872627,25.398372" id="Fill-36" fill="#0CB6D2"></path>
                        <path d="M75.0555151,1.20066949 C75.2200274,1.75571832 74.7153199,2.39265959 73.9272858,2.62418269 C73.1392517,2.85772783 72.3674657,2.59688521 72.2029534,2.04385842 C72.0374256,1.48982061 72.5431485,0.853890347 73.3301672,0.620345211 C74.1182013,0.387811094 74.8899873,0.647642695 75.0555151,1.20066949 Z" id="Fill-37" fill="#33B9CD"></path>
                    </g>
                </g>
            </g>
        </g>
    </g>
</svg>